<?xml version="1.0" standalone="no"?>
<!DOCTYPE svg PUBLIC "-//W3C//DTD SVG 20010904//EN"
 "http://www.w3.org/TR/2001/REC-SVG-20010904/DTD/svg10.dtd">
<svg version="1.0" xmlns="http://www.w3.org/2000/svg"
 width="500.000000pt" height="500.000000pt" viewBox="0 0 500.000000 500.000000"
 preserveAspectRatio="xMidYMid meet">
<metadata>
Created by potrace 1.11, written by Peter Selinger 2001-2013
</metadata>
<g transform="translate(0.000000,500.000000) scale(0.100000,-0.100000)"
fill="#000000" stroke="none">
<path d="M2329 4676 c-2 -2 -33 -6 -69 -10 -36 -3 -76 -8 -90 -10 -14 -3 -43
-7 -64 -11 -170 -25 -438 -117 -616 -212 -258 -138 -524 -353 -675 -547 -16
-21 -38 -48 -49 -60 -31 -36 -144 -211 -185 -288 -101 -189 -199 -463 -225
-633 -2 -16 -10 -64 -17 -105 -20 -111 -17 -488 4 -615 26 -157 71 -341 89
-362 6 -7 8 -13 5 -13 -9 0 82 -226 114 -283 5 -10 23 -42 39 -72 172 -318
478 -633 795 -820 240 -141 477 -227 768 -279 121 -21 464 -29 592 -12 352 44
662 158 945 344 47 31 92 62 100 68 118 95 161 133 255 228 175 177 310 368
411 583 44 92 112 267 130 333 59 220 78 358 78 585 1 210 -5 289 -35 439 -18
91 -51 217 -66 256 -3 8 -7 20 -8 25 -9 39 -77 199 -124 290 -257 502 -701
885 -1238 1069 -131 44 -278 80 -383 92 -30 3 -59 9 -64 12 -10 6 -411 13
-417 8z"/>
</g>
</svg>
