<svg width="500" height="500" viewBox="0 0 500 500" fill="none" xmlns="http://www.w3.org/2000/svg">
<circle cx="249.5" cy="249.5" r="217.5" fill="#FAFAFA"/>
<path d="M277.694 346.508H236.874L237.143 325.426H277.694C291.659 325.426 303.297 322.517 312.606 316.698C321.916 310.79 328.899 302.554 333.554 291.991C338.298 281.339 340.67 268.896 340.67 254.662V242.711C340.67 231.522 339.328 221.585 336.642 212.902C333.957 204.129 330.018 196.744 324.826 190.746C319.634 184.659 313.278 180.049 305.758 176.916C298.328 173.782 289.779 172.216 280.111 172.216H236.068V151H280.111C292.912 151 304.595 153.148 315.158 157.445C325.721 161.653 334.807 167.785 342.416 175.841C350.115 183.808 356.023 193.476 360.141 204.845C364.258 216.125 366.317 228.836 366.317 242.98V254.662C366.317 268.806 364.258 281.562 360.141 292.931C356.023 304.21 350.07 313.834 342.282 321.801C334.583 329.768 325.273 335.9 314.352 340.197C303.52 344.404 291.301 346.508 277.694 346.508ZM250.705 151V346.508H224.789V151H250.705Z" fill="#131414"/>
<path d="M141 327.843C141 322.114 142.969 317.325 146.908 313.476C150.937 309.626 156.263 307.702 162.887 307.702C169.512 307.702 174.793 309.626 178.732 313.476C182.76 317.325 184.774 322.114 184.774 327.843C184.774 333.572 182.76 338.362 178.732 342.211C174.793 346.06 169.512 347.985 162.887 347.985C156.263 347.985 150.937 346.06 146.908 342.211C142.969 338.362 141 333.572 141 327.843ZM141 217.064C141 211.335 142.969 206.546 146.908 202.697C150.937 198.847 156.263 196.923 162.887 196.923C169.512 196.923 174.793 198.847 178.732 202.697C182.76 206.546 184.774 211.335 184.774 217.064C184.774 222.794 182.76 227.583 178.732 231.432C174.793 235.281 169.512 237.206 162.887 237.206C156.263 237.206 150.937 235.281 146.908 231.432C142.969 227.583 141 222.794 141 217.064Z" fill="#131414"/>
</svg>
